HIERARCHY
ROOT Hips
{
	OFFSET 	 0.0	 0.0	 0.0
	CHANNELS 6 Xposition Yposition Zposition Xrotation Yrotation Zrotation 
	JOINT Spine
	{
		OFFSET 	 15.3169	 0.0	 -0.012192
		CHANNELS 3 Xrotation Yrotation Zrotation 
		JOINT Spine_1
		{
			OFFSET 	 15.3176	 0.0	 -0.012192
			CHANNELS 3 Xrotation Yrotation Zrotation 
			JOINT Neck
			{
				OFFSET 	 19.9142	 -1e-06	 1.563377
				CHANNELS 3 Xrotation Yrotation Zrotation 
				JOINT Head
				{
					OFFSET 	 6.926521	 0.0	 0.0
					CHANNELS 3 Xrotation Yrotation Zrotation 
					End Site
					{
						OFFSET 	 20.766598	 0.0	 0.0
					}
				}
				JOINT LeftShoulder
				{
					OFFSET 	 -6.201691	 -7.28423	 0.708832
					CHANNELS 3 Xrotation Yrotation Zrotation 
					JOINT LeftArm
					{
						OFFSET 	 14.107998	 1.3e-05	 0.0
						CHANNELS 3 Xrotation Yrotation Zrotation 
						JOINT LeftForeArm
						{
							OFFSET 	 28.5802	 0.0	 0.0
							CHANNELS 3 Xrotation Yrotation Zrotation 
							JOINT LeftHand
							{
								OFFSET 	 27.091896	 0.0	 0.0
								CHANNELS 3 Xrotation Yrotation Zrotation 
								JOINT Bip01_L_Finger0
								{
									OFFSET 	 2.676086	 3.19825	 0.628212
									CHANNELS 3 Xrotation Yrotation Zrotation 
									JOINT Bip01_L_Finger01
									{
										OFFSET 	 2.82782	 0.0	 0.0
										CHANNELS 3 Xrotation Yrotation Zrotation 
										JOINT Bip01_L_Finger02
										{
											OFFSET 	 3.100327	 0.0	 0.0
											CHANNELS 3 Xrotation Yrotation Zrotation 
											End Site
											{
												OFFSET 	 2.683968	 0.0	 0.0
											}
										}
									}
								}
								JOINT Bip01_L_Finger1
								{
									OFFSET 	 9.438972	 2.24244	 -0.203926
									CHANNELS 3 Xrotation Yrotation Zrotation 
									JOINT Bip01_L_Finger11
									{
										OFFSET 	 3.12896	 0.0	 0.0
										CHANNELS 3 Xrotation Yrotation Zrotation 
										JOINT Bip01_L_Finger12
										{
											OFFSET 	 2.379051	 0.0	 0.0
											CHANNELS 3 Xrotation Yrotation Zrotation 
											End Site
											{
												OFFSET 	 2.09993	 0.0	 0.0
											}
										}
									}
								}
								JOINT Bip01_L_Finger2
								{
									OFFSET 	 9.55928	 -0.145352	 -0.186424
									CHANNELS 3 Xrotation Yrotation Zrotation 
									JOINT Bip01_L_Finger21
									{
										OFFSET 	 3.801407	 0.0	 0.0
										CHANNELS 3 Xrotation Yrotation Zrotation 
										JOINT Bip01_L_Finger22
										{
											OFFSET 	 2.848793	 0.0	 0.0
											CHANNELS 3 Xrotation Yrotation Zrotation 
											End Site
											{
												OFFSET 	 2.01886	 0.0	 0.0
											}
										}
									}
								}
								JOINT Bip01_L_Finger3
								{
									OFFSET 	 8.993629	 -2.30169	 0.226974
									CHANNELS 3 Xrotation Yrotation Zrotation 
									JOINT Bip01_L_Finger31
									{
										OFFSET 	 3.369652	 0.0	 0.0
										CHANNELS 3 Xrotation Yrotation Zrotation 
										JOINT Bip01_L_Finger32
										{
											OFFSET 	 2.444229	 0.0	 0.0
											CHANNELS 3 Xrotation Yrotation Zrotation 
											End Site
											{
												OFFSET 	 2.057808	 0.0	 0.0
											}
										}
									}
								}
								JOINT Bip01_L_Finger4
								{
									OFFSET 	 8.023811	 -3.97473	 1.201897
									CHANNELS 3 Xrotation Yrotation Zrotation 
									JOINT Bip01_L_Finger41
									{
										OFFSET 	 2.908783	 0.0	 0.0
										CHANNELS 3 Xrotation Yrotation Zrotation 
										JOINT Bip01_L_Finger42
										{
											OFFSET 	 1.535797	 0.0	 0.0
											CHANNELS 3 Xrotation Yrotation Zrotation 
											End Site
											{
												OFFSET 	 1.630142	 0.0	 0.0
											}
										}
									}
								}
							}
						}
					}
				}
				JOINT RightShoulder
				{
					OFFSET 	 -6.20549	 7.280139	 0.70887
					CHANNELS 3 Xrotation Yrotation Zrotation 
					JOINT RightArm
					{
						OFFSET 	 14.107998	 -1e-05	 0.0
						CHANNELS 3 Xrotation Yrotation Zrotation 
						JOINT RightForeArm
						{
							OFFSET 	 28.5802	 -1.9e-05	 0.0
							CHANNELS 3 Xrotation Yrotation Zrotation 
							JOINT RightHand
							{
								OFFSET 	 27.092003	 0.0	 0.0
								CHANNELS 3 Xrotation Yrotation Zrotation 
								JOINT Bip01_R_Finger0
								{
									OFFSET 	 2.676079	 -3.19825	 0.628212
									CHANNELS 3 Xrotation Yrotation Zrotation 
									JOINT Bip01_R_Finger01
									{
										OFFSET 	 2.82782	 0.0	 0.0
										CHANNELS 3 Xrotation Yrotation Zrotation 
										JOINT Bip01_R_Finger02
										{
											OFFSET 	 3.100342	 0.0	 0.0
											CHANNELS 3 Xrotation Yrotation Zrotation 
											End Site
											{
												OFFSET 	 2.68396	 0.0	 0.0
											}
										}
									}
								}
								JOINT Bip01_R_Finger1
								{
									OFFSET 	 9.438957	 -2.242439	 -0.203918
									CHANNELS 3 Xrotation Yrotation Zrotation 
									JOINT Bip01_R_Finger11
									{
										OFFSET 	 3.12896	 0.0	 0.0
										CHANNELS 3 Xrotation Yrotation Zrotation 
										JOINT Bip01_R_Finger12
										{
											OFFSET 	 2.379051	 0.0	 0.0
											CHANNELS 3 Xrotation Yrotation Zrotation 
											End Site
											{
												OFFSET 	 2.099922	 0.0	 0.0
											}
										}
									}
								}
								JOINT Bip01_R_Finger2
								{
									OFFSET 	 9.559288	 0.145353	 -0.186417
									CHANNELS 3 Xrotation Yrotation Zrotation 
									JOINT Bip01_R_Finger21
									{
										OFFSET 	 3.801407	 0.0	 0.0
										CHANNELS 3 Xrotation Yrotation Zrotation 
										JOINT Bip01_R_Finger22
										{
											OFFSET 	 2.848793	 0.0	 0.0
											CHANNELS 3 Xrotation Yrotation Zrotation 
											End Site
											{
												OFFSET 	 2.01886	 0.0	 0.0
											}
										}
									}
								}
								JOINT Bip01_R_Finger3
								{
									OFFSET 	 8.993629	 2.301691	 0.226974
									CHANNELS 3 Xrotation Yrotation Zrotation 
									JOINT Bip01_R_Finger31
									{
										OFFSET 	 3.369652	 0.0	 0.0
										CHANNELS 3 Xrotation Yrotation Zrotation 
										JOINT Bip01_R_Finger32
										{
											OFFSET 	 2.444221	 0.0	 0.0
											CHANNELS 3 Xrotation Yrotation Zrotation 
											End Site
											{
												OFFSET 	 2.057823	 0.0	 0.0
											}
										}
									}
								}
								JOINT Bip01_R_Finger4
								{
									OFFSET 	 8.023811	 3.97473	 1.20192
									CHANNELS 3 Xrotation Yrotation Zrotation 
									JOINT Bip01_R_Finger41
									{
										OFFSET 	 2.908783	 0.0	 0.0
										CHANNELS 3 Xrotation Yrotation Zrotation 
										JOINT Bip01_R_Finger42
										{
											OFFSET 	 1.535797	 0.0	 0.0
											CHANNELS 3 Xrotation Yrotation Zrotation 
											End Site
											{
												OFFSET 	 1.630142	 0.0	 0.0
											}
										}
									}
								}
							}
						}
					}
				}
			}
		}
	}
	JOINT LeftUpLeg
	{
		OFFSET 	 -12.021299	 -8.83685	 -0.372498
		CHANNELS 3 Xrotation Yrotation Zrotation 
		JOINT LeftLeg
		{
			OFFSET 	 39.9035	 0.0	 0.0
			CHANNELS 3 Xrotation Yrotation Zrotation 
			JOINT LeftFoot
			{
				OFFSET 	 39.6689	 0.0	 0.0
				CHANNELS 3 Xrotation Yrotation Zrotation 
				JOINT Bip01_L_Toe0
				{
					OFFSET 	 10.162399	 -2e-06	 13.629601
					CHANNELS 3 Xrotation Yrotation Zrotation 
					End Site
					{
						OFFSET 	 8.38147	 0.0	 0.0
					}
				}
			}
		}
	}
	JOINT RightUpLeg
	{
		OFFSET 	 -12.021299	 8.836849	 -0.372444
		CHANNELS 3 Xrotation Yrotation Zrotation 
		JOINT RightLeg
		{
			OFFSET 	 39.9035	 0.0	 0.0
			CHANNELS 3 Xrotation Yrotation Zrotation 
			JOINT RightFoot
			{
				OFFSET 	 39.6689	 0.0	 0.0
				CHANNELS 3 Xrotation Yrotation Zrotation 
				JOINT Bip01_R_Toe0
				{
					OFFSET 	 10.162399	 -2e-06	 13.629601
					CHANNELS 3 Xrotation Yrotation Zrotation 
					End Site
					{
						OFFSET 	 8.38147	 0.0	 0.0
					}
				}
			}
		}
	}
}
MOTION
Frames: 8
Frame Time: 0.013889
-0.529565884407	90.0	-1.6404919792	-178.205837092	6.28785581213	-90.1523914812	1.069231	6.036461	1.464779	-0.0	0.0	0.0	3.269586	-26.592334	-0.361735	2.183283	5.976465	-3.180856	169.462482	-19.941784	108.197261	11.3429	1.756691	19.892391	-7.6e-05	67.451724	6e-05	-141.520181	10.918553	29.5352	-0.0	-2e-06	0.0	-0.0	0.0	-1e-06	-1e-06	0.0	0.0	-0.0	-3e-06	0.0	-0.0	-4e-06	1e-06	-0.0	-4e-06	1e-06	-0.0	-2e-06	0.0	-0.0	-3e-06	0.0	-1e-06	1e-06	5.6498000615e-30	-0.0	-2e-06	0.0	-0.0	-5e-06	1e-06	-0.0	-3e-06	0.0	-0.0	-1e-06	0.0	-1e-06	-3e-06	1e-06	-0.0	-3e-06	1e-06	-173.305182	-18.554573	-107.668864	-18.621044	10.909452	-25.129912	8.1e-05	73.087751	1.9e-05	149.721203	6.232225	-45.652295	-0.0	3e-06	-1e-06	1e-06	3e-06	-1e-06	1e-06	-1e-06	-1e-06	-0.0	3e-06	-1e-06	1e-06	-1e-06	5.6498000615e-30	1e-06	-3e-06	-1e-06	-0.0	3e-06	-2e-06	-0.0	-2e-06	3e-06	-1e-06	-2e-06	3e-06	-0.0	3e-06	1e-06	1e-06	-4e-06	3.3898800369e-29	-0.0	-2e-06	1e-06	-0.0	4e-06	-2e-06	-0.0	-2e-06	3e-06	1e-06	-2e-06	2e-06	16.39207	19.729818	173.199381	-1e-06	16.103838	2e-06	-5.606126	-1.890039	3.518403	90.0	1.00000000077e-06	75.0	-13.505199	-11.555831	176.343299	-3e-06	23.327119	4e-06	-10.660908	-17.60061	0.838616	90.0	-1.00000000713e-06	75.0	
-0.585951651577	90.132606	-3.09621991157	-178.191624908	6.51453511418	-90.0851586501	1.116486	6.251838	1.052755	4e-06	0.0	0.0	3.401914	-26.34	0.088045	2.053816	5.21182	-3.327977	169.732817	-19.839154	108.350913	11.412502	1.73493	20.161866	-8.4e-05	67.359121	4.2e-05	-141.452535	10.685479	29.402168	1e-06	-1e-06	5.6498000615e-30	-0.0	-2e-06	0.0	-1e-06	-2e-06	1e-06	-0.0	-2e-06	1e-06	-0.0	-5e-06	-1e-06	-0.0	-3e-06	0.0	-0.0	-3e-06	0.0	-0.0	-2e-06	0.0	-0.0	-4e-06	0.0	1e-06	-3e-06	1e-06	-0.0	-2e-06	0.0	-0.0	-2e-06	0.0	-0.0	-2e-06	1e-06	-0.0	-2e-06	-1e-06	-0.0	0.0	-1e-06	-173.303747	-18.389419	-107.570072	-18.42061	10.835832	-25.389017	7.6e-05	72.941359	4e-06	149.795501	5.993109	-45.466916	-0.0	1e-06	0.0	-0.0	-2e-06	0.0	2e-06	2e-06	1e-06	-0.0	0.0	-1e-06	-1e-06	-2e-06	0.0	-0.0	0.0	0.0	-0.0	1e-06	0.0	-0.0	2e-06	-1e-06	-1e-06	4e-06	-1e-06	-0.0	1e-06	1e-06	-0.0	-3e-06	1e-06	1e-06	-1e-06	2e-06	-0.0	1e-06	0.0	-0.0	2e-06	-1e-06	-0.0	1e-06	1e-06	15.898621	19.318369	173.402688	2e-06	16.681728	1e-06	-6.497451	-1.095373	3.262764	90.0	-1.00000000713e-06	75.0	-13.422997	-10.711962	175.774877	-6e-06	25.528672	4e-06	-10.983222	-14.87362	1.55671	90.0	0.0	75.0	
-0.646853352854	90.298408	-4.50670631713	-178.054146534	6.55478913984	-89.9889492313	1.087998	6.191478	0.639677	2e-06	0.0	0.0	3.434623	-26.088107	0.308778	2.052407	4.706763	-3.226979	169.963852	-19.725882	108.47223	11.475742	1.719888	20.426524	-7.5e-05	67.244927	4.9e-05	-141.367362	10.432934	29.249134	-0.0	-2e-06	1e-06	-0.0	1e-06	-1e-06	-0.0	-1e-06	0.0	-1e-06	0.0	0.0	-0.0	-2e-06	0.0	-0.0	0.0	0.0	-0.0	-1e-06	0.0	-0.0	1e-06	-1e-06	-0.0	1e-06	0.0	-1e-06	-1e-06	1e-06	-0.0	-3e-06	0.0	-0.0	1e-06	0.0	-1e-06	-1e-06	1e-06	-0.0	3e-06	-1e-06	-0.0	0.0	0.0	-173.397249	-18.399664	-107.697803	-18.212588	10.764167	-25.679915	8.7e-05	72.791259	1.1e-05	149.91671	5.795486	-45.297251	1e-06	-1e-06	2e-06	-0.0	1e-06	0.0	1e-06	4e-06	-1e-06	1e-06	-1e-06	1e-06	2e-06	0.0	-1e-06	-0.0	4e-06	-2e-06	1e-06	0.0	1e-06	1e-06	1e-06	-1e-06	-0.0	6e-06	0.0	1e-06	-1e-06	2e-06	-1e-06	0.0	-2e-06	-0.0	6e-06	-1e-06	1e-06	0.0	1e-06	1e-06	-2e-06	-1e-06	2e-06	5e-06	-1e-06	16.088912	18.795648	173.420446	3e-06	17.599818	4e-06	-6.307404	-0.967105	3.19152	90.0	1.00000000077e-06	75.0	-13.698004	-9.493746	175.142689	-2e-06	28.319098	6e-06	-11.232225	-11.765961	1.709342	90.0	1.00000000077e-06	75.0	
-0.734267036287	90.460296	-5.86426869559	-177.936238077	6.41590103645	-89.9153618653	0.993815	6.030944	0.184879	-1e-06	-1e-06	-1e-06	3.3961	-25.731595	0.580847	2.008712	4.262481	-3.171856	170.152892	-19.703793	108.569957	11.529206	1.72611	20.621892	-7.9e-05	67.11083	5.2e-05	-141.288556	10.196331	29.111991	-1e-06	0.0	1e-06	1e-06	-1e-06	5.6498000615e-30	-0.0	-1e-06	0.0	-0.0	0.0	1e-06	-0.0	-2e-06	-1e-06	-0.0	0.0	0.0	-1e-06	-3e-06	1e-06	-0.0	0.0	0.0	-0.0	1e-06	0.0	-1e-06	-3e-06	1e-06	-0.0	-2e-06	1e-06	-0.0	-1e-06	0.0	-1e-06	-2e-06	1e-06	-0.0	1e-06	0.0	-0.0	1e-06	0.0	-173.54189	-18.382711	-107.866106	-18.01391	10.735722	-25.954596	7.4e-05	72.602459	1.1e-05	150.127599	5.610228	-45.251072	-0.0	-1e-06	1e-06	-0.0	-2e-06	-1e-06	1e-06	0.0	1e-06	-0.0	-2e-06	1e-06	2e-06	0.0	-1e-06	-0.0	1e-06	-1e-06	-0.0	-1e-06	1e-06	2e-06	0.0	-1e-06	-0.0	2e-06	-1e-06	-0.0	-1e-06	0.0	2e-06	-2e-06	-2e-06	1e-06	0.0	-1e-06	-0.0	-1e-06	1e-06	1e-06	0.0	-1e-06	2e-06	0.0	-1e-06	15.976137	18.485046	173.406007	-0.0	18.942099	4e-06	-6.156623	-1.479948	3.682705	90.0	0.0	75.0	-13.832239	-8.037639	174.587107	-1e-06	31.330009	6e-06	-11.209373	-8.501362	2.86853	90.0	-3.99999999991e-06	75.0	
-0.861073488463	90.61161	-7.18406671104	-177.769266201	6.15843873764	-89.8865320002	0.86997	5.82679	-0.264973	-0.0	0.0	0.0	3.347909	-25.477376	0.915491	1.957285	4.033848	-3.121345	170.288811	-19.62321	108.652937	11.570421	1.741313	20.778882	-8.5e-05	66.960729	5.5e-05	-141.185269	9.957817	28.971747	-0.0	-3e-06	1e-06	-0.0	2e-06	-1e-06	-0.0	2e-06	0.0	1e-06	0.0	0.0	-0.0	0.0	0.0	-0.0	0.0	0.0	-0.0	-3e-06	0.0	-0.0	3e-06	-1e-06	-0.0	-2e-06	-1e-06	1e-06	-3e-06	1e-06	-1e-06	-1e-06	-5.6498000615e-30	-1e-06	-1e-06	-5.6498000615e-30	1e-06	-2e-06	1e-06	-0.0	3e-06	0.0	-0.0	3e-06	0.0	-173.651603	-18.556567	-107.76437	-17.830624	10.688011	-26.253594	7.4e-05	72.448868	8e-06	150.208386	5.391903	-45.230582	1e-06	-1e-06	2e-06	3e-06	-2e-06	-4.5198400492e-29	1e-06	-3e-06	1e-06	1e-06	-2e-06	3e-06	1e-06	0.0	1e-06	-0.0	-1e-06	-1e-06	1e-06	-1e-06	1e-06	-0.0	0.0	1e-06	1e-06	2e-06	-1e-06	1e-06	-1e-06	3e-06	1e-06	0.0	0.0	-0.0	-1e-06	-1e-06	1e-06	-1e-06	1e-06	-0.0	0.0	1e-06	2e-06	-2e-06	0.0	16.366972	18.272844	173.266426	3e-06	20.771869	4e-06	-5.232777	-2.68642	4.742737	90.0	0.0	75.0	-14.377724	-6.177397	174.076838	-4e-06	34.790006	7e-06	-11.605857	-4.209894	2.630485	90.0	0.0	75.0	
-1.01489723728	90.702209	-8.44945491263	-177.494014106	5.85029577481	-89.8821615373	0.725762	5.460618	-0.623352	2e-06	0.0	0.0	3.333584	-25.312683	1.303962	1.917046	4.022468	-3.256622	170.279629	-19.704777	108.866954	11.60378	1.748031	20.870343	-7.4e-05	66.828531	5.4e-05	-141.056056	9.722124	28.825734	1e-06	8e-06	-1e-06	-0.0	-2e-06	0.0	-0.0	-1e-06	0.0	1e-06	7e-06	-1e-06	-0.0	-1e-06	0.0	-0.0	-1e-06	0.0	1e-06	8e-06	-1e-06	-0.0	-2e-06	1e-06	-0.0	0.0	0.0	1e-06	8e-06	-1e-06	-0.0	0.0	0.0	-0.0	1e-06	0.0	1e-06	8e-06	0.0	-0.0	-2e-06	0.0	1e-06	0.0	0.0	-173.725695	-18.732226	-107.807831	-17.717833	10.616123	-26.504179	7.1e-05	72.337058	2.4e-05	150.259531	5.249222	-45.216877	1e-06	0.0	1e-06	-1e-06	-2e-06	1e-06	-0.0	-4e-06	1e-06	1e-06	0.0	0.0	1e-06	-3e-06	0.0	-0.0	-3e-06	0.0	1e-06	0.0	1e-06	-0.0	-4e-06	0.0	-2e-06	-4e-06	-1e-06	1e-06	0.0	1e-06	1e-06	-2e-06	1e-06	-0.0	0.0	1e-06	1e-06	0.0	1e-06	-0.0	-4e-06	0.0	-1e-06	-2e-06	1e-06	15.52299	18.063342	173.303281	2e-06	22.512736	4e-06	-5.627506	-3.988314	5.350167	90.0	-1.00000000713e-06	75.0	-14.973957	-4.320322	173.455659	-4e-06	38.505393	7e-06	-12.288185	-0.567425	2.609416	90.0	-5.00000000387e-06	75.0	
-1.18037693882	90.724106	-9.66980787668	-177.243351606	5.54883914116	-89.9787754825	0.609331	5.219679	-0.791188	1e-06	1e-06	-5.6498000615e-30	3.192066	-25.208309	1.416887	1.861543	3.955821	-3.125786	170.300774	-19.575385	108.83393	11.637451	1.740573	20.893713	-7.8e-05	66.739718	4.5e-05	-140.88873	9.502033	28.692013	-0.0	-2e-06	0.0	1e-06	-2e-06	0.0	-0.0	-1e-06	0.0	-0.0	-1e-06	0.0	-1e-06	-1e-06	1e-06	-0.0	-1e-06	1e-06	1e-06	-2e-06	0.0	-0.0	-2e-06	0.0	-0.0	0.0	0.0	-0.0	-2e-06	0.0	1e-06	0.0	0.0	-1e-06	1e-06	5.6498000615e-30	-0.0	-2e-06	0.0	-0.0	0.0	0.0	-0.0	2e-06	0.0	-173.75566	-18.622738	-107.879493	-17.697295	10.5828	-26.645639	6.5e-05	72.241961	2.4e-05	150.384988	5.186011	-45.344731	-0.0	-5e-06	0.0	-0.0	-4e-06	-1e-06	-1e-06	-2e-06	-1e-06	-0.0	-5e-06	0.0	1e-06	-4e-06	2e-06	-0.0	1e-06	-1e-06	-0.0	-4e-06	0.0	-1e-06	-3e-06	0.0	-0.0	0.0	-1e-06	-0.0	-5e-06	-1e-06	-0.0	-3e-06	1e-06	-0.0	0.0	0.0	-0.0	-4e-06	0.0	-1e-06	-3e-06	0.0	-1e-06	0.0	-1e-06	15.002956	17.815903	173.359986	3e-06	24.0648	2e-06	-5.752056	-5.229516	6.096165	90.0	1.00000000077e-06	75.0	-15.421119	-2.354813	173.034619	-4e-06	42.346278	9e-06	-12.720185	2.697276	2.27332	90.0	-2.9999999896e-06	75.0	
-1.35559468672	90.688301	-10.8501426409	-176.922248342	5.309885039	-90.0623494796	0.506934	4.882775	-0.894048	-0.0	0.0	0.0	3.246098	-25.263572	1.783434	1.823173	4.235146	-3.507942	170.112727	-19.713424	108.966183	11.690008	1.72944	20.878451	-7.3e-05	66.684537	5.4e-05	-140.680013	9.294795	28.593147	-1e-06	-1e-06	1e-06	-0.0	-2e-06	1e-06	-1e-06	-1e-06	-5.6498000615e-30	-1e-06	-2e-06	1e-06	-0.0	-5e-06	1e-06	-0.0	-3e-06	1e-06	-1e-06	0.0	1e-06	-1e-06	-2e-06	0.0	-0.0	0.0	0.0	-1e-06	-1e-06	1e-06	-0.0	-4e-06	1e-06	-1e-06	-2e-06	1e-06	-1e-06	0.0	1e-06	-1e-06	-4e-06	1e-06	-1e-06	-2e-06	1e-06	-173.729094	-18.682584	-107.717201	-17.716659	10.555494	-26.732983	6.4e-05	72.16907	2.4e-05	150.38731	5.095471	-45.516118	-1e-06	1e-06	-1e-06	-1e-06	-3e-06	2e-06	-0.0	2e-06	1e-06	-3e-06	3e-06	0.0	1e-06	-5e-06	4.5198400492e-29	-0.0	-1e-06	0.0	-1e-06	2e-06	0.0	-0.0	-7e-06	1e-06	1e-06	-2e-06	0.0	-1e-06	1e-06	-1e-06	-0.0	-2e-06	0.0	1e-06	-1e-06	5.6498000615e-30	-1e-06	2e-06	0.0	1e-06	-3e-06	1e-06	-1e-06	0.0	0.0	14.503572	17.288445	173.425637	1e-06	25.181977	4e-06	-5.983053	-6.388167	6.575171	90.0	-1.00000000713e-06	75.0	-15.603304	-0.43512	172.736481	-4e-06	46.188782	1.1e-05	-13.23167	5.619553	0.985032	90.0	-1.99999999837e-06	75.0	
